<?xml version="1.0" encoding="utf-8"?>
<!-- Generator: Adobe Illustrator 19.2.1, SVG Export Plug-In . SVG Version: 6.00 Build 0)  -->
<svg version="1.1" id="Layer_1" xmlns="http://www.w3.org/2000/svg" xmlns:xlink="http://www.w3.org/1999/xlink" x="0px" y="0px"
	 viewBox="0 0 34.961 59.769" enable-background="new 0 0 34.961 59.769" xml:space="preserve">
<g>
	<path id="Majority_Outline" d="M0.195,14.322c0.649-1.122,1.828-1.713,2.395-2.693c0.629-1.088,0.642-2.631,1.276-3.806
		c1.697-3.144,4.933-5.251,8.248-6.324c3.528-1.141,7.929-2.186,11.509-0.923c1.876,0.662,2.916,1.556,4.041,3.175
		c0.802,1.154,1.341,3.303,2.514,4.031c0.926,0.575,4.549,1.779,4.79,2.63c0.291,1.029-1.857,1.972-1.834,2.025
		c0.453,1.013-0.477,1.548-0.678,2.254c0.331,0.73,0.836,1.378,0.879,2.057c0.073,1.143-0.252,3.17-0.773,4.255
		c-0.195,0.406-0.166,0.691,0.056,1.092c0.473,0.853,0.992,1.704,0.939,2.762c-0.092,1.839-1.601,1.965-2.058,3.25
		c-0.289,0.812-0.017,1.527,0.029,2.572c0.047,1.079-1.231,0.965-1.466,1.812c-0.257,0.924,0.314,2.581,0.208,3.638
		c-0.111,1.116,1.267,2.505-0.8,2.806c-0.559,0.081-0.776,0.449-0.629,1.017c0.237,0.913,0.574,1.821,0.653,2.75
		c0.077,0.905-0.011,1.86-0.221,2.745c-0.204,0.86-1.892,1.35-2.771,0.927c-0.528-0.415-1.108-0.606-1.74-0.572
		c-1.932,1.112-3.84,0.956-5.741-0.068c-0.277-0.149-1.022,0.309-1.16,0.788c-0.378,1.318-0.232,2.796-1.387,3.751
		c-0.649,0.537,0.941,2.098,1.159,2.445c1.21,1.925,1.65,3.73,2.18,5.916c0.088,0.362,0.178,0.722,0.28,1.135
		c-5.405,0-10.724,0-16.115,0c0.066-0.226,0.133-0.439,0.19-0.655c0.402-1.524,0.742-3.068,1.222-4.566
		c0.845-2.635,2.734-4.647,4.567-6.608c2.331-2.494,2.052-6.869,4.426-9.498c0.447-0.495,0.928-1.671,0.135-2.088
		c-0.646-0.339-1.339-0.585-1.991-0.914c-0.87-0.439-1.619-0.984-2.194-1.858c-1.304-1.98-1.238-4.121-1.492-6.384
		c-0.064-0.017-0.134-0.062-0.173-0.042c-1.479,0.735-2.751,0.002-3.895-0.755c-2.004-1.327-3.413-3.64-3.837-6.039
		c-0.344-1.946,0.158-2.778-0.74-4.601C-0.093,15.175,0.067,14.775,0.195,14.322C0.502,13.791-0.011,14.829,0.195,14.322z
		 M29.372,32.384c-2.221,0.818-3.184,0.547-5.356-0.309c-0.959-0.378-1.882,0.132-2.614-0.939c-0.472-0.69-0.424-2.319,0.276-2.822
		c0.64-0.46,1.363-0.805,2.068-1.165c0.405-0.114,0.705,0.012,0.9,0.378c-0.137,0.087-0.267,0.231-0.413,0.253
		c-0.724,0.105-1.369,0.359-1.915,0.872c-2.45,2.3,3.435,3.62,4.917,3.728c0.735,0.053,2.941-0.85,3.427-1.402
		c0.93-1.055-1.696-4.252-2.403-5.03c-2.085-2.293-3.464-7.981-1.994-10.746c1.276-2.401,3.694-2.02,5.671-0.828
		c0.211-0.346,0.385-0.607,0.536-0.882c1.541-2.804-5.961-0.543-6.625-0.82c-1.228-0.513-1.1-1.664-0.24-2.496
		c0.916-0.887,3.854-0.784,5.104-0.988c0.002-0.074,0.003-0.148,0.005-0.221c-0.384-0.235-1.711-0.81-1.876-1.343
		c-2.612-8.454-11.551-8.079-18.317-4.928c-2.401,1.118-7.894,4.976-7.189,8.353c0.545,2.613,7.009,2.346,4.621,6.683
		c-0.423,0.768-1.269,0.819-1.669,0.047c-0.339-0.654-0.881-0.983-1.474-1.268c-2.192-1.052-3.615,1.082-3.558,3.006
		c0.066,2.201,1.813,4.873,3.469,6.13c0.888,0.673,3.063,1.844,3.76,0.578c0.525-0.953-0.875-1.914-0.031-2.762
		c0.946,1.666,1.044,3.997,1.198,5.91c0.146,1.808,1.007,5.406,3.361,5.508c2.492,0.108,3.723,2.328,4.299,4.427
		c0.356,1.3,0.283,4.403,1.279,5.412c0.635,0.643,1.474,1.045,2.367,1.165c1.928,0.258,2.945-0.758,4.671-1.168
		c0.041,0.232,0.082,0.464,0.126,0.712c0.243,0.116,0.517,0.256,0.797,0.38c2.265,0.999,2.454-2.341,2.13-3.751
		c-0.038-0.166-0.497-2.695-0.905-2.797c-0.484-0.121-0.975-0.232-1.47-0.288c-1.027-0.116-2.562-0.277-3.435,0.423
		c-0.148,0.118-0.464,0.017-0.703,0.017c0.138-0.199,0.234-0.468,0.421-0.587c1.337-0.85,2.806-0.595,4.207-0.33
		c0.83,0.158,1.585,0.231,2.394-0.013c0.746-0.226,0.908-0.466,0.697-1.235c-0.166-0.603-0.688-0.695-1.138-0.688
		c-0.75,0.011-1.503,0.269-2.246,0.235c-1.741-0.08-3.233,0.575-4.677,1.437c-0.993,0.593-0.643,0.986-1.237,1.781
		c-0.701-1.379-1.313-2.557,0.3-1.982c0.783-0.419,1.503-0.924,2.299-1.207c1.857-0.66,3.816-0.8,5.763-0.912
		C30.436,35.824,29.484,33.206,29.372,32.384C29.238,32.433,29.496,33.295,29.372,32.384z M16.069,37.517
		c-0.066,0.019-0.132,0.037-0.198,0.056c-0.362,0.455-0.796,0.869-1.072,1.374c-0.638,1.169-1.219,2.372-1.787,3.579
		c-0.427,0.908-0.836,1.828-1.182,2.77c-0.39,1.061-0.663,2.167-1.056,3.226c-0.519,1.399-0.443,2.698,0.476,3.89
		c0.172,0.223,0.441,0.371,0.676,0.538c0.605,0.432,1.202,0.877,1.828,1.275c0.949,0.603,1.032-4.312,0.629-4.785
		c-0.102-0.238-0.056-0.451,0.136-0.641c2.005-0.382,1.223,2.365,2.434-1.599c0.63-2.062,0.904-1.973,0.436-4.218
		C17.006,41.145,16.526,39.333,16.069,37.517C16.003,37.535,16.375,38.732,16.069,37.517z M0.822,15.006
		c0.412,2.524,1.016,0.763,2.769,0.683c1.353-0.062,2.412,0.68,3.297,1.679c0.657,0.742,0.702-0.752,0.75-1.043
		c0.231-1.409-0.974-2.293-2.035-2.888C4.059,12.57,0.663,12.114,0.822,15.006C0.863,15.253,0.741,13.537,0.822,15.006z
		 M27.838,23.343c-0.115,0.702,0.001,1.187,0.496,1.633c1.247,1.123,1.507,3.95,3.508,2.063c0.93-0.877,1.185-2.046,0.772-3.288
		c-0.173-0.519-0.484-0.991-0.727-1.472C30.613,23.186,29.312,23.566,27.838,23.343C27.723,24.045,29.312,23.566,27.838,23.343z
		 M29.754,17.578c-0.778,0.094-3.323-0.05-3.598,1.028c-0.209,0.818,0.935,2.099,1.81,2.042c1.286-0.085,2.618,0.057,3.826-0.6
		c2.104-1.144-0.174-2.125-1.156-2.32C30.432,19.149,30.089,18.81,29.754,17.578C28.864,17.686,29.897,18.102,29.754,17.578z
		 M26.386,17.413c1.111-0.743,2.286-0.536,3.414-0.539c0.268-0.001,2.491,0.595,2.777,0.303c0.068-0.403-0.031-0.768-0.296-1.094
		c-0.726-1.522-2.185-1.911-3.677-2.077c-0.265-0.03-0.629,0.052-0.815,0.228C26.937,15.046,26.242,15.962,26.386,17.413
		C27.498,16.67,26.242,15.962,26.386,17.413z M26.213,12.187c1.991-0.67,3.568-0.687,5.607-0.772
		c0.435-0.018,4.071-0.36,1.935-1.274c-1.445-0.619-4.426-0.264-5.912,0.043C27.079,10.342,24.409,12.277,26.213,12.187
		C26.451,12.107,25.782,12.209,26.213,12.187z M31.863,20.895c-1.564,0.564-3.155,0.486-4.745,0.304
		C27.013,23.881,31.238,22.518,31.863,20.895C30.299,21.459,31.635,21.487,31.863,20.895z"/>
	<path id="Face" fill="#FFC989" d="M29.372,32.384c0.112,0.822,1.064,3.44-0.421,3.526c-1.947,0.112-3.906,0.252-5.763,0.912
		c-0.796,0.283-1.516,0.788-2.299,1.207c-1.612-0.575-1.001,0.603-0.3,1.982c0.594-0.795,0.244-1.188,1.237-1.781
		c1.444-0.862,2.936-1.517,4.677-1.437c0.743,0.034,1.496-0.224,2.246-0.235c0.45-0.007,0.971,0.085,1.138,0.688
		c0.212,0.769,0.049,1.009-0.697,1.235c-0.809,0.245-1.563,0.171-2.394,0.013c-1.401-0.266-2.871-0.521-4.207,0.33
		c-0.187,0.119-0.283,0.388-0.421,0.587c0.239,0,0.555,0.101,0.703-0.017c0.872-0.7,2.407-0.54,3.435-0.423
		c0.495,0.056,0.985,0.168,1.47,0.288c0.408,0.102,0.867,2.631,0.905,2.797c0.329,1.431,0.181,4.771-2.13,3.751
		c-0.28-0.124-0.554-0.263-0.797-0.38c-0.044-0.248-0.085-0.48-0.126-0.712c-1.764,0.419-2.672,1.436-4.671,1.168
		c-0.893-0.12-1.732-0.521-2.367-1.165c-0.915-0.927-0.943-4.186-1.279-5.412c-0.566-2.062-1.834-4.32-4.299-4.427
		c-2.347-0.102-3.218-3.738-3.361-5.508c-0.155-1.919-0.242-4.226-1.198-5.91c-0.844,0.849,0.569,1.783,0.031,2.762
		c-0.699,1.274-2.899,0.076-3.76-0.578c-1.695-1.285-3.403-3.917-3.469-6.13c-0.057-1.912,1.311-4.085,3.558-3.006
		c0.593,0.285,1.135,0.613,1.474,1.268c0.4,0.771,1.246,0.721,1.669-0.047c2.357-4.281-4.075-4.08-4.621-6.683
		c-0.715-3.409,4.779-7.193,7.189-8.353c6.733-3.239,15.721-3.474,18.317,4.928c0.165,0.533,1.492,1.108,1.876,1.343
		c-0.002,0.074-0.003,0.148-0.005,0.221c-1.272,0.208-3.717,0.072-4.768,0.759c-1.083,0.707-1.567,2.107-0.096,2.726
		c0.727,0.305,8.168-1.988,6.625,0.82c-0.151,0.275-0.325,0.537-0.536,0.882c-1.977-1.192-4.395-1.572-5.671,0.828
		c-1.46,2.747-0.072,8.475,1.994,10.746c0.707,0.778,3.333,3.974,2.403,5.03c-0.486,0.551-2.692,1.455-3.427,1.402
		c-1.482-0.108-7.367-1.428-4.917-3.728c0.546-0.513,1.191-0.767,1.915-0.872c0.147-0.021,0.276-0.165,0.413-0.253
		c-0.196-0.366-0.496-0.491-0.9-0.378c-0.705,0.359-1.427,0.704-2.068,1.165c-0.685,0.492-0.708,2.189-0.276,2.822
		c0.747,1.094,1.597,0.542,2.614,0.939C26.362,32.99,27.082,33.228,29.372,32.384C29.496,33.295,29.238,32.433,29.372,32.384z
		 M22.572,22.868c0.042,0.024,0.083,0.047,0.125,0.071c-0.273,0.397-0.345,0.809-0.218,1.236c0.338,0.035,0.545-0.114,0.621-0.446
		c0.542-2.289,1.33-4.837,0.565-6.957c-0.9-2.495-3.172-3.646-5.627-2.621c-5.258,2.195-4.383,12.664,2.265,10.546
		C21.133,24.433,21.981,23.504,22.572,22.868C22.614,22.891,22.459,22.989,22.572,22.868z M24.136,13.595
		c2.02-1.511-1.569-3.242-2.743-3.541c-2.294-0.583-7.397,0.147-8.631,2.419c-0.41,0.755-0.59,2.514,0.258,2.165
		c1.387-0.572,2.499-0.739,3.009-1.044c2.114-1.266,6.377,0.802,7.468-2.22C24.223,11.935,24.007,12.725,24.136,13.595
		C24.283,13.485,24.007,12.725,24.136,13.595z M13.236,22.888c-0.888,1.803-1.664,4.686-0.333,6.478
		c0.977,1.315,4.504,2.288,5.227,0.29c-0.993-0.143-1.588,0.514-2.675,0.244C11.237,28.854,14.552,25.149,13.236,22.888
		C13.084,23.197,13.641,23.583,13.236,22.888z M22.551,7.511c-1.31,0.214-4.335,0.145-5.262,1.151
		c0.651,0.332,10.643-0.863,10.622-0.737C28.013,7.292,22.951,7.511,22.551,7.511C21.391,7.701,23.97,7.511,22.551,7.511z
		 M24.691,4.188c-0.451-1.743-8.943,0.593-9.811,1.569c1.543,0.276,3.493-0.788,4.985-1.102C21.488,4.314,23.055,4.348,24.691,4.188
		C24.502,3.457,24.471,4.21,24.691,4.188z M6.849,24.834c0-0.324,0-0.55,0-0.806c-0.829,0.015-1.336-0.465-1.871-0.995
		c-1.489-1.475-0.806-2.778-0.528-4.467C1.34,18.977,4.585,24.642,6.849,24.834C6.849,24.509,5.924,24.755,6.849,24.834z
		 M25.402,5.94c0.018-0.089,0.037-0.178,0.055-0.267c-1.696-0.515-8.35-0.179-9.375,1.455C19.178,6.225,22.292,6.1,25.402,5.94
		C25.42,5.85,22.292,6.1,25.402,5.94z M17.799,37.164c0.072,0.008,0.143,0.016,0.215,0.024c0.094-0.26,0.297-0.535,0.263-0.776
		c-0.196-1.394,0.414-2.56,1.016-3.695c0.406-0.764,1.022-1.412,1.586-2.169c-0.493-0.241-0.894-0.047-1.204,0.582
		C18.654,32.723,16.951,35.134,17.799,37.164C17.871,37.172,17.751,37.049,17.799,37.164z M26.199,35.229
		c0.087,0.008,0.175,0.015,0.262,0.023c0.475-0.82,0.429-1.412-0.136-1.778C25.657,33.368,26.099,35.113,26.199,35.229
		C26.286,35.236,25.772,34.735,26.199,35.229z M27.761,34.606c0.069-0.411-0.049-0.768-0.356-1.072
		c-0.146,0.339,0.007,1.907,0.171,1.56C27.637,34.931,27.699,34.769,27.761,34.606C27.761,34.337,27.738,34.671,27.761,34.606z"/>
	<path id="Neck" fill="#FFC989" d="M16.108,37.524c0.905,3.597,3.117,7.42,0.03,11.837c-2.362,3.38,0.424-0.938-1.581-0.556
		c-0.192,0.19-0.237,0.403-0.136,0.641c0.598,0.701,0.149,5.279-0.629,4.785c-0.626-0.398-1.223-0.843-1.828-1.275
		c-0.235-0.167-0.504-0.315-0.676-0.538c-0.919-1.192-0.994-2.49-0.476-3.89c0.393-1.06,0.666-2.165,1.056-3.226
		c0.346-0.942,0.756-1.862,1.182-2.77c0.568-1.207,1.148-2.41,1.787-3.579c0.276-0.504,0.71-0.919,1.072-1.374
		C15.975,37.561,16.041,37.542,16.108,37.524C16.413,38.739,16.041,37.542,16.108,37.524z M16.354,44.55
		c-0.05-0.052-0.099-0.105-0.149-0.157c-1.485,0.518-2.17,2.219-1.504,3.586C15.115,46.61,15.797,45.797,16.354,44.55
		C16.305,44.497,16.101,45.116,16.354,44.55z"/>
	<path id="Hair" fill="#D2D2D2" d="M0.822,15.006c-0.158-2.873,3.233-2.438,4.78-1.57c0.982,0.551,1.907,1.229,2.016,2.423
		c0.034,0.377-0.006,2.326-0.73,1.508c-0.885-0.999-1.944-1.74-3.297-1.679C1.738,15.773,1.25,17.624,0.822,15.006
		C0.741,13.537,0.863,15.253,0.822,15.006z"/>
	<path id="Cheek_Left" fill="#FFC989" d="M27.838,23.343c1.474,0.222,2.775-0.157,4.048-1.064c0.243,0.482,0.554,0.953,0.727,1.472
		c0.413,1.243,0.158,2.411-0.772,3.288c-1.96,1.849-2.263-0.942-3.508-2.063C27.838,24.531,27.723,24.045,27.838,23.343
		C29.312,23.566,27.723,24.045,27.838,23.343z"/>
	<path id="Eye_Over_Left" fill="#FFC989" d="M26.386,17.413c-0.145-1.451,0.551-2.366,1.403-3.178
		c0.185-0.177,0.55-0.258,0.815-0.228c1.492,0.166,2.951,0.555,3.677,2.077c0.265,0.326,0.364,0.69,0.296,1.094
		c-0.287,0.292-2.509-0.304-2.777-0.303C28.672,16.876,27.498,16.67,26.386,17.413C26.242,15.962,27.498,16.67,26.386,17.413z"/>
	<path id="Eyebrow_Left" fill="#D2D2D2" d="M26.213,12.187c-1.859,0.093,0.938-1.861,1.629-2.003
		c1.513-0.312,3.922-0.727,5.375-0.213c3.074,1.087-0.803,1.441-1.398,1.444C30.022,11.427,28.223,11.631,26.213,12.187
		C25.796,12.302,26.451,12.107,26.213,12.187z"/>
	<path id="Eye_Under_Left" fill="#FFC989" d="M31.863,20.895c-0.625,1.623-4.85,2.986-4.745,0.304
		C28.708,21.381,30.299,21.459,31.863,20.895C31.635,21.487,30.299,21.459,31.863,20.895z"/>
	<path id="Eye_Outline_Right" d="M22.572,22.868c-0.592,0.636-1.439,1.565-2.268,1.829c-6.69,2.131-7.525-8.351-2.265-10.546
		c2.409-1.006,4.619,0.073,5.569,2.488c0.857,2.179,0.051,4.733-0.507,7.091c-0.076,0.333-0.283,0.482-0.621,0.446
		c-0.127-0.428-0.055-0.84,0.218-1.236C22.656,22.915,22.614,22.891,22.572,22.868C22.459,22.989,22.614,22.891,22.572,22.868z
		 M15.359,18.942c1.219-0.231,2.279-0.501,3.355-0.617c1.306-0.141,2.592-0.568,3.934-0.317c1.66,0.311-0.64-3.272-1.848-3.495
		c-2.11-0.389-3.945,0.43-4.782,2.415C15.755,17.55,15.593,18.217,15.359,18.942C16.578,18.711,15.593,18.217,15.359,18.942z
		 M23.317,18.957c-0.049-0.097-0.099-0.194-0.148-0.292c-0.751,0-1.504-0.02-2.253,0.016c-1.103,0.053-0.733,2.15-1.853,0.271
		c-0.925,0.181-3.501,0.073-3.053,1.442c0.368,1.123,2.729,1.736,3.674,1.691C21.486,22.001,22.453,20.308,23.317,18.957
		C23.267,18.86,22.954,19.524,23.317,18.957z M15.445,21.055c-0.04,0.034-0.079,0.069-0.119,0.103
		c0.763,2.402,1.484,3.397,4.155,3.02c1.333-0.188,2.771-1.468,3.16-2.978C20.151,23.937,17.786,22.865,15.445,21.055
		C15.405,21.089,17.786,22.865,15.445,21.055z"/>
	<path id="Eyebrow_Right_Outline" d="M24.136,13.595c-0.128-0.87,0.088-1.66-0.639-2.221c-1.025,2.84-4.729,1.556-6.964,2.138
		c-0.987,0.257-5.937,2.949-3.771-1.039c1.211-2.229,6.02-3.041,8.262-2.653C22.176,10.02,26.394,11.906,24.136,13.595
		C24.007,12.725,24.283,13.485,24.136,13.595z M21.154,12.643c1.215,0.139,1.684-0.95,1.161-1.657
		c-0.437-0.59-1.709-0.511-2.276-0.551c-1.779-0.125-5.874,0.448-6.632,2.312c-1.235,3.035,1.122,0.483,1.896,0.214
		C16.815,12.436,19.572,12.524,21.154,12.643C21.69,12.704,20.576,12.6,21.154,12.643z"/>
	<path id="Cheek_Right_Slash_Upper" d="M13.236,22.888c1.34,2.302-1.947,5.979,2.219,7.012c1.087,0.27,1.682-0.387,2.675-0.244
		c-0.715,1.974-4.205,1.086-5.227-0.29C11.586,27.593,12.353,24.68,13.236,22.888C13.641,23.583,13.084,23.197,13.236,22.888z"/>
	<path id="Brow_Wrinkle_Bottom" d="M22.551,7.511c0.465,0,5.467-0.245,5.36,0.414c0.016-0.102-10.02,1.044-10.622,0.737
		C18.204,7.669,21.317,7.713,22.551,7.511C23.97,7.511,21.391,7.701,22.551,7.511z"/>
	<path id="Brow_Wrinkle_Top" d="M24.691,4.188c-1.639,0.16-3.194,0.123-4.826,0.467c-1.53,0.323-3.431,1.38-4.985,1.102
		C15.788,4.736,24.247,2.47,24.691,4.188C24.471,4.21,24.502,3.457,24.691,4.188z"/>
	<path id="Ear_Right" d="M6.849,24.834c-2.264-0.192-5.509-5.857-2.399-6.268c-0.284,1.727-0.956,2.996,0.528,4.467
		c0.535,0.531,1.043,1.01,1.871,0.995C6.849,24.284,6.849,24.509,6.849,24.834C5.924,24.755,6.849,24.509,6.849,24.834z"/>
	<path id="Brow_Wrinkle_Middle" d="M25.402,5.94c-3.11,0.16-6.224,0.286-9.32,1.187c1.025-1.634,7.679-1.969,9.375-1.455
		C25.439,5.761,25.42,5.85,25.402,5.94C22.292,6.1,25.42,5.85,25.402,5.94z"/>
	<path id="Cheek_Right_Slash_Lower" d="M17.799,37.164c-0.849-2.033,0.869-4.463,1.877-6.033c0.309-0.629,0.71-0.823,1.204-0.582
		c-0.564,0.757-1.181,1.404-1.586,2.169c-0.602,1.135-1.212,2.301-1.016,3.695c0.034,0.241-0.169,0.516-0.263,0.776
		C17.942,37.18,17.871,37.172,17.799,37.164C17.751,37.049,17.871,37.172,17.799,37.164z"/>
	<path id="Rostrum_Right" d="M26.199,35.229c-0.1-0.115-0.542-1.861,0.126-1.755c0.566,0.366,0.611,0.958,0.136,1.778
		C26.373,35.244,26.286,35.236,26.199,35.229C25.772,34.735,26.286,35.236,26.199,35.229z"/>
	<path id="Rostrum_Left" d="M27.761,34.606c-0.062,0.162-0.123,0.325-0.185,0.487c-0.163,0.348-0.316-1.22-0.171-1.56
		C27.712,33.838,27.83,34.195,27.761,34.606C27.738,34.671,27.761,34.337,27.761,34.606z"/>
	<path id="Neck_Mark_Center" d="M16.354,44.55c-0.557,1.247-1.239,2.061-1.653,3.429c-0.666-1.368,0.015-3.067,1.504-3.586
		C16.255,44.445,16.305,44.497,16.354,44.55C16.101,45.116,16.305,44.497,16.354,44.55z"/>
	<path id="Eye_Over_Right" fill="#FFC989" d="M15.359,18.942c0.233-0.725,0.396-1.392,0.658-2.014
		c0.837-1.984,2.672-2.804,4.782-2.415c1.36,0.251,3.363,3.779,1.848,3.495c-1.341-0.251-2.628,0.175-3.934,0.317
		C17.638,18.441,16.578,18.711,15.359,18.942C15.593,18.217,16.578,18.711,15.359,18.942z"/>
	<path id="Eye_Under_Right" fill="#FFC989" d="M15.445,21.055c2.341,1.81,4.706,2.882,7.196,0.145
		c-0.389,1.51-1.827,2.79-3.16,2.978c-2.626,0.371-3.38-0.584-4.155-3.02C15.365,21.124,15.405,21.089,15.445,21.055
		C17.786,22.865,15.405,21.089,15.445,21.055z"/>
	<path id="Eyebrow_Right" fill="#D2D2D2" d="M21.154,12.643c-1.579-0.119-4.342-0.209-5.852,0.318
		c-0.741,0.259-3.23,2.788-1.896-0.214c0.821-1.846,4.835-2.417,6.632-2.312c0.568,0.033,1.842-0.037,2.276,0.551
		C22.838,11.693,22.369,12.782,21.154,12.643C20.576,12.6,21.69,12.704,21.154,12.643z"/>
</g>
</svg>
