<svg id="WOTC_Hands" data-name="WOTC Hands" xmlns="http://www.w3.org/2000/svg" viewBox="0 0 395.858 360.377">
  <defs>
    <style>
      .cls-1 {
        fill: #2b9a5e;
      }

      .cls-2 {
        fill: #ffc989;
      }

      .cls-3 {
        fill: #fff;
      }

      .cls-4 {
        fill: #ba0000;
      }

      .cls-5 {
        fill: #2c698a;
      }

      .cls-6 {
        font-size: 46.16px;
      }

      .cls-6, .cls-7 {
        fill: #cef5e0;
        font-family: Open Sans;
        font-weight: 700;
      }

      .cls-7 {
        font-size: 45px;
      }
    </style>
  </defs>
  <title>wotcHandsText</title>
  <path d="M155.317,0c9.74,1.62,19.54,2.915,29.22,4.84a31.245,31.245,0,0,1,9.27,4c10.11,5.9,11.535,15.17,3.535,23.865a141.393,141.393,0,0,1-10.72,9.52l-1.8,1.605a5.305,5.305,0,0,0-.34,7.495q0.162,0.178.34,0.34c8.5,7.845,16.7,15.5,25.1,22.935,3.68,3.26,7.72,6.25,11.545-.615a9.5,9.5,0,0,1,7.125-1.4c14.29,1.33,28.55,2.97,42.825,4.47,19.235,2,38.435,4.57,57.715,5.86,18.22,1.22,47,1.23,65.265,1.7v9.07c1.42,34.68,2.115,69.77,0,106.14a17.275,17.275,0,0,1-5,8.845c-6.68,7.68-14.2,14.64-20.7,22.465a38.855,38.855,0,0,0-7.935,14.41,63.925,63.925,0,0,1-35.68,42.555c-14.5,7.37-28.385,16.035-42.445,24.29-10.5,6.165-20.74,12.77-31.3,18.81a6.85,6.85,0,0,0-4.09,9.545,54.057,54.057,0,0,1,1.59,7c2.185,9.22-2.09,14.085-11.44,12.24-7.6-1.5-15.055-3.78-22.5-5.92s-14.755-4.5-21.925-6.74c-5.5,9.53-20.87,14.5-32.285,11.105a3.5,3.5,0,0,0-1.085-.475c-9.53,1.695-18.7-2.2-28.1-1.82a19.905,19.905,0,0,1-15.5-6.67,23.93,23.93,0,0,0-17.115-8.335,16.44,16.44,0,0,1-9.565-6.145,6.305,6.305,0,0,0-7.5-2.85c-11.25,3.29-22.4,7-33.825,9.595-12.2,2.75-24.635,4.5-37,6.415a8.58,8.58,0,0,1-10.61-5.635c-1.5-4.745,1.7-7.54,4.67-10.79A142.049,142.049,0,0,0,16.882,316.3c4.39-6.34,7.95-13.315,12.76-19.3a31.04,31.04,0,0,0,7.59-19.56c0.65-27.535,1.4-55.075,2.72-82.585A59.45,59.45,0,0,1,57,155.15c13.215-13.825,24.745-29.255,37.235-43.8,4.06-4.73,8.58-8.935,7.595-16a6.6,6.6,0,0,1,.675-2.88c2.15-5.94,4.475-11.82,6.405-17.83a8.825,8.825,0,0,0-1.115-4.26,12.12,12.12,0,0,1,3.07-14.645,8.265,8.265,0,0,0-1.655-13.425c-0.885-.46-1.775-0.92-2.695-1.295-10.73-4.39-12-9.7-5.83-21s17-15.755,28.905-18.24c2.065-.43,4.12-0.935,6.175-1.41Zm-52.09,124.67-1.6-.945a92.291,92.291,0,0,0,4.97-9.12,3.57,3.57,0,0,0-1-4.275,5.5,5.5,0,0,0-5.14-.195,72.155,72.155,0,0,0-7.9,8.94c-10.4,12.325-20.07,25.39-31.405,36.79A60.08,60.08,0,0,0,43.537,198.3c-0.755,22.95-.32,45.77-0.5,68.735-0.125,16.615-2.57,27.575-13.705,37.315a36.405,36.405,0,0,0-6.665,10.28,62,62,0,0,1-15.925,21,6.755,6.755,0,0,0-2.4,6.035,6.81,6.81,0,0,0,5.795,2.675,267.494,267.494,0,0,0,31.2-4.675c17.37-4.15,34.455-9.46,51.76-13.91a35.7,35.7,0,0,1,11.685-.295c7.28,0.625,15.05-2.07,21.75,2.975a3.5,3.5,0,0,0,1.59-.685,14.705,14.705,0,0,1,14.73,1.765,6.34,6.34,0,0,0,4.17,1.4c7-3.605,11.08,1.305,15.86,4.76a26.5,26.5,0,0,0,9.1,4.885c9.445,2.095,19.155,3.04,28.56,5.28,12.74,3.035,25.25,7.03,37.95,10.255,6.12,1.555,8.355-.9,6.775-6.845-5.835-21.945-12.075-43.795-17.545-65.83-3.97-16-7.5-32.15-10.235-48.4-2.185-12.925-1.91-26.3-4.5-39.11-3.675-18.1-8.845-35.915-13.68-53.77a17.09,17.09,0,0,0-19.28-13.97,47.555,47.555,0,0,1-36.2-10.955,83.82,83.82,0,0,0-14.275-6.66l-1.08,1.135a40.965,40.965,0,0,1,5.465,33.33c-0.28-10.755-.5-20.79-6.39-29.5a7.5,7.5,0,0,0-3.605-3.3,14.88,14.88,0,0,0-17.65,7.445C105.2,121.295,104.237,123,103.227,124.67Zm29.08-69.635c1.16,1.265.55,1.745-.215,2.965-5.38.32-10.755,0.7-16.14,0.945a4.58,4.58,0,0,0-4.865,5.945,11.72,11.72,0,0,0,4.935,6.205,26.285,26.285,0,0,0,7.8,2.085,38.37,38.37,0,0,0-8.08,3,10.19,10.19,0,0,0-4.73,5.725,7.97,7.97,0,0,0,3.17,6.5,21.625,21.625,0,0,1,6.345,4.655,43,43,0,0,1-8.11-.21,4.605,4.605,0,0,0-6.74,4.73c-0.725,7.5,3.26,12.06,11.86,10.745a43.17,43.17,0,0,1,34.07,9.545,29.445,29.445,0,0,0,21.85,6.43,36.05,36.05,0,0,1,25.43,6.83,57.97,57.97,0,0,0,9.215,4.315l6.95-52.365a44.82,44.82,0,0,1-9.74-7.11,133.5,133.5,0,0,0-34.215-26.86c-14.21-8.885-29.815-9.6-45.71-8.58a7.58,7.58,0,0,0-7.855,9.165c0.365,6.54,5.235,3.71,8.465,4.3C128.082,54.38,130.2,54.69,132.307,55.035Zm69.35,83.69c14.4,36,18.55,71.5,22.725,109.4,3.3-1.915,2.46-1.76,4.3-2.82,9.14-5.3,19.1-9.65,28.19-15.025a18.645,18.645,0,0,0,6.125-4.31,29.96,29.96,0,0,1,16-11.925c12.8-4.1,19-14.785,26.54-25.43-4.865-.4-8.77-0.8-12.685-1.03q-34.315-2-68.635-3.895a6.75,6.75,0,0,1-7.439-5.982l-0.006-.058c-1.875-10.365-4.785-20.615-5.72-31.05C210.512,140.65,208.227,139.185,201.657,138.725Zm-2.57-117.15a12.255,12.255,0,0,0-4.59-8.27A32.5,32.5,0,0,0,180.622,6.97a448.864,448.864,0,0,0-47.615-2.36,36.275,36.275,0,0,0-28.725,14.96c-3.175,4.135-6.62,10-2.87,14.06,3.47,3.74,11.345,7.79,14.845,6.23a50.885,50.885,0,0,1,25.22-3.185,38.69,38.69,0,0,1,18.31,3.76c11.81,7.955,21,6.085,29.775-4,1.7-1.945,4-3.425,5.525-5.44A19.735,19.735,0,0,0,199.087,21.575ZM186.7,349.31l0.035-2.5a56.383,56.383,0,0,0-9.935-.9,17.22,17.22,0,0,1-14.83-5.97,32.071,32.071,0,0,0-8.69-6,9.735,9.735,0,0,0-4,2.415c4.26,6,7.285,14.265,13.085,17.4C170.162,357.92,179.252,354.37,186.7,349.31Zm-34.255,3.5c-3.075-5.79-5.835-11.235-8.835-16.55a9.71,9.71,0,0,0-12.823-4.913q-0.3.132-.582,0.283c3.495,15.55,10.475,26.6,22.24,21.155v0.025Zm-19.36-.5c-3.4-7.3-5.755-12.94-8.67-18.28a10.175,10.175,0,0,0-5.285-4.5,8.58,8.58,0,0,0-7.1.465,7.135,7.135,0,0,0-.25,6.9,68.944,68.944,0,0,0,11.16,12.97A27.21,27.21,0,0,0,133.087,352.31ZM91.882,330.18c3.185,6.665,6.11,8.09,13.815,7C105.042,327.79,102.732,326.55,91.882,330.18Z"/>
  <path id="Bag_Bottom_Fill" data-name="Bag Bottom Fill" class="cls-1" d="M103.227,124.725c1-1.67,2.06-3.315,3.04-5a14.425,14.425,0,0,1,17.95-7.5,7.325,7.325,0,0,1,3.3,3.355c5.885,8.7,6.11,18.735,6.39,29.5a44.055,44.055,0,0,0-5.685-33.67l0.94-1c11.525,2.33,16.165,8.5,21.66,11.6a48.23,48.23,0,0,0,23,6.2c12.365-1.63,22,.79,25.465,13.975,4.7,17.89,9.9,33.81,13.68,53.77,2.6,12.81,2.325,26.185,4.5,39.11,2.75,16.25,6.265,32.4,10.235,48.4,5.47,22.035,11.71,43.885,17.545,65.83,1.58,5.945-.655,8.4-6.775,6.845-12.7-3.225-25.21-7.22-37.95-10.255-9.405-2.24-19.115-3.19-28.56-5.28a26.5,26.5,0,0,1-9.085-4.88c-4.785-3.455-8.875-8.365-15.86-4.76a6.34,6.34,0,0,1-4.17-1.4,14.705,14.705,0,0,0-14.73-1.765,3.5,3.5,0,0,1-1.59.685c-6.7-5.045-14.475-2.35-21.75-2.975a35.7,35.7,0,0,0-11.685.295c-17.3,4.45-34.39,9.76-51.76,13.91a267.494,267.494,0,0,1-31.2,4.675,6.81,6.81,0,0,1-5.8-2.665,6.755,6.755,0,0,1,2.4-6.035c6.035-4.665,10.14-13.84,15.07-20.965a57.1,57.1,0,0,1,7.7-11.25c13-14.11,12.11-22.96,12.5-36.23,0.68-22.95.755-45.92,1.5-68.87A60.08,60.08,0,0,1,61.127,155.94c11.335-11.4,21-24.465,31.405-36.79a72.155,72.155,0,0,1,7.915-8.925,5.07,5.07,0,0,1,5.14.195c0.93,0.5,2.06,1.375,1,4.275a63.5,63.5,0,0,1-4.97,9.12Z"/>
  <path id="Bag_Top_Fill" data-name="Bag Top Fill" class="cls-1" d="M198.3,18.525a7.07,7.07,0,0,1,.13,6.25A18.1,18.1,0,0,1,195.1,30.99a73.7,73.7,0,0,1-5.525,5.44c-8.785,10.085-17.97,11.95-29.775,4a38.69,38.69,0,0,0-18.31-3.76,50.885,50.885,0,0,0-25.22,3.185c-3.5,1.56-11.375-2.5-14.845-6.23-3.75-4.04-.305-9.925,2.87-14.06A36.275,36.275,0,0,1,133.017,4.6a448.864,448.864,0,0,1,47.615,2.36A32.5,32.5,0,0,1,194.507,13.3,11.125,11.125,0,0,1,198.3,18.525Z"/>
  <path id="Hand_Left_Fill" data-name="Hand Left Fill" class="cls-2" d="M132.307,55.1c-2.11-.345-4.22-0.655-6.32-1.035-3.23-.59-8.1,2.24-8.465-4.3a7.58,7.58,0,0,1,7.86-9.17c15.9-1,31.5-.3,45.7,8.58,18.335,10.745,26.835,17.305,34.215,26.86a69.289,69.289,0,0,0,9.74,7.11l-6.95,52.365a57.97,57.97,0,0,1-9.215-4.315,36.05,36.05,0,0,0-25.415-6.845,29.445,29.445,0,0,1-21.85-6.43,43.17,43.17,0,0,0-34.07-9.545c-8.6,1.315-12.585-3.22-11.86-10.745a4.6,4.6,0,0,1,6.74-4.73,18.645,18.645,0,0,0,7.145-.3,33,33,0,0,1-5.385-4.145,9.55,9.55,0,0,1-3.17-6.5,10.19,10.19,0,0,1,4.73-5.725,39.23,39.23,0,0,1,8.08-3,26.915,26.915,0,0,1-7.8-2.085,11.72,11.72,0,0,1-4.935-6.205A4.58,4.58,0,0,1,115.947,59c5.385-.25,10.76-0.625,16.14-0.945C133.752,56.99,132.232,56.085,132.307,55.1Z"/>
  <path id="Hand_Right_Pinky_Finger" data-name="Hand Right Pinky Finger" class="cls-2" d="M186.7,349.3c-7.45,5.06-16.54,8.61-24.33,4.4-5.8-3.13-8.825-11.41-13.085-17.395a10.12,10.12,0,0,1,4-2.415,22.6,22.6,0,0,1,8.69,6,18.88,18.88,0,0,0,14.83,5.97,37.144,37.144,0,0,1,9.935.9Z"/>
  <path id="Hand_Right_Ring_Finger" data-name="Hand Right Ring Finger" class="cls-2" d="M152.447,352.785c-11.765,5.44-18.745-5.605-22.24-21.18a9.71,9.71,0,0,1,13.122,4.048q0.151,0.286.283,0.582C146.612,341.55,149.382,347,152.447,352.785Z"/>
  <path id="Hand_Right_Middle_Finger" data-name="Hand Right Middle Finger" class="cls-2" d="M133.087,352.31a27.21,27.21,0,0,1-10.14-2.435,68.944,68.944,0,0,1-11.16-12.97,7.135,7.135,0,0,1,.25-6.9,8.58,8.58,0,0,1,7.1-.465,10.175,10.175,0,0,1,5.285,4.5C127.327,339.365,129.682,345.01,133.087,352.31Z"/>
  <path id="Hand_Right_Index_Finger" data-name="Hand Right Index Finger" class="cls-2" d="M91.882,330.18c10.835-3.63,13.595-2.325,14.265,7.05C98.462,338.335,95.262,337.225,91.882,330.18Z"/>
  <path id="Cuff_Right" data-name="Cuff Right" class="cls-3" d="M323.017,284.805l-78.305,45.42a500.563,500.563,0,0,1-19.33-77.92l40.5-21.535C293.012,236.96,311.177,256.265,323.017,284.805Z"/>
  <path id="Right_Wrist_Bottom_Red_Stripe_" data-name="Right Wrist Bottom Red Stripe " class="cls-4" d="M316.917,271.725l-75.635,47.5s-1.105-3.35-1.635-5.455l-1.945-6.68c-0.41-1.635-1.8-6.41-1.8-6.41l70.34-44.65a77.876,77.876,0,0,1,6.335,8.54l3.38,5.13Z"/>
  <path id="Right_Wrist_Top_Red_Stripe" data-name="Right Wrist Top Red Stripe" class="cls-4" d="M278.792,234.98l-51.41,29.475a31.876,31.876,0,0,0,.7,3.675l1.535,7.345c0.445,2.15,1.25,5.5,1.25,5.5l62.625-37.36a25,25,0,0,0-6.23-4.305l-2.8-1.69A30.175,30.175,0,0,0,278.792,234.98Z"/>
  <path id="Cuff_Left" data-name="Cuff Left" class="cls-3" d="M328.382,184.725a3.365,3.365,0,0,1-4.24,1.26l-97.6-5.315c-4.68.5-5.675-1.4-6.685-5.425-14.605-41.73.59-93.95,0.59-93.95l1.305-2.705a6.86,6.86,0,0,1,4.385-2.945L326.447,87.52a5.655,5.655,0,0,1,3.31,3.625C334.1,97.675,336.527,176.66,328.382,184.725Z"/>
  <path id="Left_Wrist_Bottom_Red_Stripe" data-name="Left Wrist Bottom Red Stripe" class="cls-4" d="M324.277,187.225l-100.35-6.3a2.705,2.705,0,0,1-1.9-.89,21.6,21.6,0,0,1-3.65-8.16,97.549,97.549,0,0,1-2.41-11.175c-0.3-1.685-.54-2.97-0.54-2.97l117.25,9.5s0.4-4.465.19-2.265a74.64,74.64,0,0,1-1.555,12C330.937,178.61,330.442,186.315,324.277,187.225Z"/>
  <path id="Left_Wrist_Middle_Red_Stripe" data-name="Left Wrist Middle Red Stripe" class="cls-4" d="M333.762,151.63l-120-9s-0.14-1.27-.185-2.9a130.19,130.19,0,0,1,.45-19.735c0.335-3.53.05-1.065,0.05-1.065l119.5,9.075s0,0.625.05,2.115c0.11,5.615.205,14.65,0.11,18.27C333.712,150.225,333.762,151.63,333.762,151.63Z"/>
  <path id="Left_Wrist_Top_Red_Stripe" data-name="Left Wrist Top Red Stripe" class="cls-4" d="M332.912,112.725l-116.84-10.2a126.411,126.411,0,0,1,4.1-20.12l1.4,0.165L330.292,92.68a88.879,88.879,0,0,1,2.625,20.045"/>
  <circle id="Left_Wrist_Button_Two" data-name="Left Wrist Button Two" class="cls-3" cx="266.267" cy="173.485" r="7.35"/>
  <circle id="Left_Wrist_Button_One" data-name="Left Wrist Button One" class="cls-3" cx="236.042" cy="170.835" r="7.35"/>
  <path id="Sleeve_Right" data-name="Sleeve Right" class="cls-5" d="M305.532,249.81c-8.8-11.6-31.92-21.7-31.92-21.7s-4.535.3-4.25-2.29a9.5,9.5,0,0,1,7.5-6.415,45.685,45.685,0,0,0,27.42-21.805l4.53-8.24c23.445,2.085,56.785,6.86,85.59,3.325-5,16-27.76,28.58-36.465,48-3.05,6.8-4.855,13.5-5.805,16.075-5.835,15.8-25.91,25.5-25.91,25.5C316.2,258.515,305.532,249.81,305.532,249.81Z"/>
  <path id="Sleeve_Left" data-name="Sleeve Left" class="cls-5" d="M395.772,188.415a359.126,359.126,0,0,1-62.95-1.105,347.8,347.8,0,0,0,1-99.54c18.815,1.035,41.665.97,60.575,0,1.025-.055.46,5.855,0.5,6.885C395.692,125.96,396.032,153.96,395.772,188.415Z"/>
  <path id="Bag_Top_Fold_Left" data-name="Bag Top Fold Left" d="M125.782,37.265l-2,.375c4.55-4.775-.5-13.53-1.5-13.195l1.47-1.135C129.512,25.8,128.427,33.45,125.782,37.265Z"/>
  <path id="Bag_Top_Fold_Right" data-name="Bag Top Fold Right" d="M161.557,41.56l-5.245-2.2c0.2-7.525.5-13.95,3.85-16.885a3.325,3.325,0,0,1,1.5-1.07l2.33,0.69C158.057,29.5,156.347,36.475,161.557,41.56Z"/>
  <text class="cls-6" transform="translate(58.293 280.975)">$9,600</text>
  <text class="cls-7" transform="translate(70.068 226.588)">Up to</text>
</svg>
