<svg id="WOTC_Hands" data-name="WOTC Hands" xmlns="http://www.w3.org/2000/svg" viewBox="0 0 79.169 72.074">
  <defs>
    <style>
      .cls-1 {
        fill: #2b9a5e;
      }

      .cls-2 {
        fill: #ffc989;
      }

      .cls-3 {
        fill: #fff;
      }

      .cls-4 {
        fill: #ba0000;
      }

      .cls-5 {
        fill: #2c698a;
      }

      .cls-6 {
        font-size: 9.232px;
        fill: #cef5e0;
      }

      .cls-6, .cls-7 {
        font-family: Open Sans;
        font-weight: 700;
      }

      .cls-7 {
        font-size: 9.23px;
      }
    </style>
  </defs>
  <title>wotcHands</title>
  <path d="M31.387,0.155c1.948,0.324,3.908.583,5.844,0.968a6.249,6.249,0,0,1,1.854.8c2.022,1.18,2.307,3.034.707,4.773A28.279,28.279,0,0,1,37.648,8.6l-0.36.321a1.061,1.061,0,0,0,0,1.567c1.7,1.569,3.34,3.1,5.019,4.587,0.736,0.652,1.544,1.25,2.309-.123a1.9,1.9,0,0,1,1.425-.279c2.858,0.266,5.71.594,8.565,0.894,3.847,0.4,7.687.914,11.543,1.172,3.644,0.244,9.4.246,13.053,0.34v1.814c0.284,6.936.423,13.954,0,21.228a3.455,3.455,0,0,1-1,1.769c-1.336,1.536-2.84,2.928-4.14,4.493a7.771,7.771,0,0,0-1.587,2.882,12.785,12.785,0,0,1-7.136,8.511c-2.9,1.474-5.677,3.207-8.489,4.858-2.1,1.233-4.148,2.554-6.26,3.762a1.37,1.37,0,0,0-.818,1.909,10.811,10.811,0,0,1,.318,1.4c0.437,1.844-.418,2.817-2.288,2.448-1.52-.3-3.011-0.756-4.5-1.184s-2.951-.9-4.385-1.348c-1.1,1.906-4.174,2.9-6.457,2.221a0.7,0.7,0,0,0-.217-0.095c-1.906.339-3.74-.439-5.62-0.364a3.981,3.981,0,0,1-3.1-1.334A4.786,4.786,0,0,0,20.1,68.382a3.288,3.288,0,0,1-1.913-1.229,1.261,1.261,0,0,0-1.5-.57c-2.25.658-4.481,1.4-6.765,1.919-2.44.55-4.927,0.9-7.4,1.283A1.716,1.716,0,0,1,.4,68.658C0.1,67.709.741,67.15,1.334,66.5A28.41,28.41,0,0,0,3.7,63.415c0.878-1.268,1.59-2.663,2.552-3.86A6.208,6.208,0,0,0,7.77,55.643C7.9,50.136,8.05,44.628,8.314,39.126a11.89,11.89,0,0,1,3.41-7.941c2.643-2.765,4.949-5.851,7.447-8.759,0.812-.946,1.716-1.787,1.519-3.2a1.319,1.319,0,0,1,.135-0.576c0.43-1.188.895-2.364,1.281-3.566a1.765,1.765,0,0,0-.223-0.852,2.424,2.424,0,0,1,.614-2.929,1.653,1.653,0,0,0-.331-2.685c-0.177-.092-0.355-0.184-0.539-0.259-2.146-.878-2.4-1.941-1.166-4.2s3.4-3.151,5.781-3.648c0.413-.086.824-0.187,1.235-0.282ZM20.969,25.089L20.65,24.9a18.458,18.458,0,0,0,.994-1.824,0.714,0.714,0,0,0-.2-0.855,1.1,1.1,0,0,0-1.028-.039,14.431,14.431,0,0,0-1.581,1.788c-2.081,2.465-4.014,5.078-6.281,7.358a12.016,12.016,0,0,0-3.523,8.487c-0.151,4.59-.064,9.154-0.1,13.747-0.025,3.323-.514,5.515-2.741,7.463a7.281,7.281,0,0,0-1.333,2.056,12.4,12.4,0,0,1-3.185,4.2,1.351,1.351,0,0,0-.481,1.207,1.362,1.362,0,0,0,1.159.535,53.5,53.5,0,0,0,6.24-.935c3.474-.83,6.891-1.892,10.352-2.782a7.14,7.14,0,0,1,2.337-.059c1.456,0.125,3.01-.414,4.35.595a0.7,0.7,0,0,0,.318-0.137,2.941,2.941,0,0,1,2.946.353,1.268,1.268,0,0,0,.834.28c1.4-.721,2.216.261,3.172,0.952a5.3,5.3,0,0,0,1.819.977c1.889,0.419,3.831.608,5.712,1.056,2.548,0.607,5.05,1.406,7.59,2.051,1.224,0.311,1.671-.18,1.355-1.369-1.167-4.389-2.415-8.759-3.509-13.166-0.794-3.2-1.5-6.43-2.047-9.68-0.437-2.585-.382-5.26-0.9-7.822-0.735-3.621-1.769-7.183-2.736-10.754a3.418,3.418,0,0,0-3.856-2.794,9.511,9.511,0,0,1-7.24-2.191,16.764,16.764,0,0,0-2.855-1.332l-0.216.227a8.193,8.193,0,0,1,1.093,6.666c-0.056-2.151-.1-4.158-1.278-5.9a1.5,1.5,0,0,0-.721-0.661,2.976,2.976,0,0,0-3.53,1.489C21.363,24.414,21.171,24.755,20.969,25.089Zm5.816-13.927c0.232,0.253.11,0.349-.043,0.593-1.076.064-2.151,0.14-3.228,0.189a0.916,0.916,0,0,0-.973,1.189,2.344,2.344,0,0,0,.987,1.241,5.257,5.257,0,0,0,1.559.417,7.674,7.674,0,0,0-1.616.6,2.038,2.038,0,0,0-.946,1.145,1.594,1.594,0,0,0,.634,1.3,4.325,4.325,0,0,1,1.269.931,8.6,8.6,0,0,1-1.622-.042,0.921,0.921,0,0,0-1.348.946c-0.145,1.5.652,2.412,2.372,2.149a8.634,8.634,0,0,1,6.814,1.909,5.889,5.889,0,0,0,4.37,1.286A7.21,7.21,0,0,1,40.1,26.381a11.594,11.594,0,0,0,1.843.863l1.39-10.473a8.964,8.964,0,0,1-1.948-1.422,26.7,26.7,0,0,0-6.843-5.372C31.7,8.2,28.579,8.058,25.4,8.261a1.516,1.516,0,0,0-1.571,1.833c0.073,1.308,1.047.742,1.693,0.86C25.94,11.031,26.363,11.093,26.785,11.162ZM40.655,27.9C43.534,35.1,44.365,42.2,45.2,49.78c0.661-.383.492-0.352,0.859-0.564,1.828-1.059,3.82-1.93,5.638-3.005a3.729,3.729,0,0,0,1.225-.862,5.992,5.992,0,0,1,3.2-2.385c2.56-.819,3.8-2.957,5.308-5.086-0.973-.08-1.754-0.16-2.537-0.206q-6.863-.4-13.727-0.779a1.35,1.35,0,0,1-1.489-1.208c-0.375-2.073-.957-4.123-1.144-6.21C42.426,28.285,41.969,27.992,40.655,27.9ZM40.141,4.47a2.451,2.451,0,0,0-.918-1.654,6.5,6.5,0,0,0-2.775-1.267,89.773,89.773,0,0,0-9.523-.472,7.255,7.255,0,0,0-5.745,2.992c-0.635.827-1.324,2-.574,2.812,0.694,0.748,2.269,1.558,2.969,1.246a10.177,10.177,0,0,1,5.044-.637,7.738,7.738,0,0,1,3.662.752c2.362,1.591,4.2,1.217,5.955-.8,0.339-.389.8-0.685,1.105-1.088A3.947,3.947,0,0,0,40.141,4.47ZM37.664,70.017l0.007-.5a11.277,11.277,0,0,0-1.987-.179,3.444,3.444,0,0,1-2.966-1.194,6.414,6.414,0,0,0-1.738-1.2,1.947,1.947,0,0,0-.8.483c0.852,1.2,1.457,2.853,2.617,3.479C34.356,71.739,36.174,71.029,37.664,70.017Zm-6.851.7c-0.615-1.158-1.167-2.247-1.767-3.31a1.942,1.942,0,0,0-2.681-.926C27.064,69.591,28.46,71.8,30.813,70.712Zm-3.872-.1c-0.681-1.46-1.151-2.588-1.734-3.656a2.035,2.035,0,0,0-1.057-.9,1.716,1.716,0,0,0-1.42.093,1.427,1.427,0,0,0-.05,1.38,13.789,13.789,0,0,0,2.232,2.594A5.442,5.442,0,0,0,26.941,70.617ZM18.7,66.191c0.637,1.333,1.222,1.618,2.763,1.4C21.332,65.713,20.87,65.465,18.7,66.191Z" transform="translate(-0.326 -0.155)"/>
  <path id="Bag_Bottom_Fill" data-name="Bag Bottom Fill" class="cls-1" d="M20.969,25.1c0.2-.334.412-0.663,0.608-1a2.885,2.885,0,0,1,3.59-1.5,1.465,1.465,0,0,1,.661.671c1.177,1.74,1.222,3.747,1.278,5.9a8.811,8.811,0,0,0-1.137-6.734l0.188-.2c2.305,0.466,3.233,1.7,4.332,2.319a9.646,9.646,0,0,0,4.6,1.241c2.473-.326,4.4.158,5.093,2.795,0.941,3.578,1.979,6.762,2.736,10.754,0.52,2.562.465,5.237,0.9,7.822,0.55,3.25,1.253,6.48,2.047,9.68,1.094,4.407,2.342,8.777,3.509,13.166,0.316,1.189-.131,1.68-1.355,1.369-2.54-.645-5.042-1.444-7.59-2.051-1.881-.448-3.823-0.638-5.712-1.056A5.3,5.3,0,0,1,32.9,67.3c-0.957-.691-1.775-1.673-3.172-0.952a1.268,1.268,0,0,1-.834-0.28,2.941,2.941,0,0,0-2.946-.353,0.7,0.7,0,0,1-.318.137c-1.34-1.009-2.895-.47-4.35-0.595a7.14,7.14,0,0,0-2.337.059c-3.46.89-6.878,1.952-10.352,2.782a53.5,53.5,0,0,1-6.24.935A1.362,1.362,0,0,1,1.191,68.5a1.351,1.351,0,0,1,.481-1.207C2.879,66.36,3.7,64.525,4.686,63.1A11.421,11.421,0,0,1,6.226,60.85c2.6-2.822,2.422-4.592,2.5-7.246,0.136-4.59.151-9.184,0.3-13.774a12.016,12.016,0,0,1,3.523-8.487c2.267-2.28,4.2-4.893,6.281-7.358A14.431,14.431,0,0,1,20.413,22.2a1.014,1.014,0,0,1,1.028.039c0.186,0.1.412,0.275,0.2,0.855a12.7,12.7,0,0,1-.994,1.824Z" transform="translate(-0.326 -0.155)"/>
  <path id="Bag_Top_Fill" data-name="Bag Top Fill" class="cls-1" d="M39.984,3.86a1.414,1.414,0,0,1,.026,1.25,3.621,3.621,0,0,1-.667,1.243,14.741,14.741,0,0,1-1.105,1.088c-1.757,2.017-3.594,2.39-5.955.8a7.738,7.738,0,0,0-3.662-.752,10.177,10.177,0,0,0-5.044.637c-0.7.312-2.275-.5-2.969-1.246-0.75-.808-0.061-1.985.574-2.812a7.255,7.255,0,0,1,5.745-2.992,89.773,89.773,0,0,1,9.523.472,6.5,6.5,0,0,1,2.775,1.267A2.225,2.225,0,0,1,39.984,3.86Z" transform="translate(-0.326 -0.155)"/>
  <path id="Hand_Left_Fill" data-name="Hand Left Fill" class="cls-2" d="M26.785,11.175c-0.422-.069-0.844-0.131-1.264-0.207-0.646-.118-1.62.448-1.693-0.86A1.516,1.516,0,0,1,25.4,8.274c3.181-.2,6.3-0.059,9.139,1.716,3.667,2.149,5.367,3.461,6.843,5.372a13.858,13.858,0,0,0,1.948,1.422l-1.39,10.473a11.594,11.594,0,0,1-1.843-.863,7.21,7.21,0,0,0-5.083-1.369,5.889,5.889,0,0,1-4.37-1.286A8.634,8.634,0,0,0,23.83,21.83c-1.72.263-2.517-.644-2.372-2.149a0.921,0.921,0,0,1,1.348-.946,3.729,3.729,0,0,0,1.429-.06,6.6,6.6,0,0,1-1.077-.829,1.91,1.91,0,0,1-.634-1.3,2.038,2.038,0,0,1,.946-1.145,7.846,7.846,0,0,1,1.616-.6,5.383,5.383,0,0,1-1.559-.417,2.344,2.344,0,0,1-.987-1.241,0.916,0.916,0,0,1,.973-1.189c1.077-.05,2.152-0.125,3.228-0.189C27.074,11.553,26.77,11.372,26.785,11.175Z" transform="translate(-0.326 -0.155)"/>
  <path id="Hand_Right_Pinky_Finger" data-name="Hand Right Pinky Finger" class="cls-2" d="M37.664,70.016c-1.49,1.012-3.308,1.722-4.866.881-1.16-.626-1.765-2.282-2.617-3.479a2.024,2.024,0,0,1,.8-0.483,4.519,4.519,0,0,1,1.738,1.2,3.776,3.776,0,0,0,2.966,1.194,7.429,7.429,0,0,1,1.987.179Z" transform="translate(-0.326 -0.155)"/>
  <path id="Hand_Right_Ring_Finger" data-name="Hand Right Ring Finger" class="cls-2" d="M30.813,70.712c-2.353,1.088-3.749-1.121-4.448-4.236a1.942,1.942,0,0,1,2.681.926C29.646,68.465,30.2,69.554,30.813,70.712Z" transform="translate(-0.326 -0.155)"/>
  <path id="Hand_Right_Middle_Finger" data-name="Hand Right Middle Finger" class="cls-2" d="M26.941,70.617a5.442,5.442,0,0,1-2.028-.487,13.789,13.789,0,0,1-2.232-2.594,1.427,1.427,0,0,1,.05-1.38,1.716,1.716,0,0,1,1.42-.093,2.035,2.035,0,0,1,1.057.9C25.789,68.028,26.26,69.157,26.941,70.617Z" transform="translate(-0.326 -0.155)"/>
  <path id="Hand_Right_Index_Finger" data-name="Hand Right Index Finger" class="cls-2" d="M18.7,66.191c2.167-.726,2.719-0.465,2.853,1.41C20.016,67.822,19.376,67.6,18.7,66.191Z" transform="translate(-0.326 -0.155)"/>
  <path id="Cuff_Right" data-name="Cuff Right" class="cls-3" d="M64.927,57.116L49.266,66.2A100.113,100.113,0,0,1,45.4,50.616L53.5,46.309C58.926,47.547,62.559,51.408,64.927,57.116Z" transform="translate(-0.326 -0.155)"/>
  <path id="Right_Wrist_Bottom_Red_Stripe_" data-name="Right Wrist Bottom Red Stripe&gt;" class="cls-4" d="M63.707,54.5L48.58,64s-0.221-.67-0.327-1.091l-0.389-1.336c-0.082-.327-0.36-1.282-0.36-1.282l14.068-8.93a15.575,15.575,0,0,1,1.267,1.708l0.676,1.026Z" transform="translate(-0.326 -0.155)"/>
  <path id="Right_Wrist_Top_Red_Stripe" data-name="Right Wrist Top Red Stripe" class="cls-4" d="M56.082,47.151L45.8,53.046a6.376,6.376,0,0,0,.141.735l0.307,1.469c0.089,0.43.25,1.1,0.25,1.1l12.525-7.472a5,5,0,0,0-1.246-.861l-0.559-.338A6.035,6.035,0,0,0,56.082,47.151Z" transform="translate(-0.326 -0.155)"/>
  <path id="Cuff_Left" data-name="Cuff Left" class="cls-3" d="M66,37.1a0.673,0.673,0,0,1-.848.252L45.633,36.289c-0.936.1-1.135-.281-1.337-1.085-2.921-8.346.118-18.79,0.118-18.79l0.261-.541a1.372,1.372,0,0,1,.877-0.589l20.061,2.375a1.131,1.131,0,0,1,.662.725C67.143,19.69,67.629,35.487,66,37.1Z" transform="translate(-0.326 -0.155)"/>
  <path id="Left_Wrist_Bottom_Red_Stripe" data-name="Left Wrist Bottom Red Stripe" class="cls-4" d="M65.179,37.6l-20.07-1.26a0.541,0.541,0,0,1-.379-0.178A4.321,4.321,0,0,1,44,34.53a19.51,19.51,0,0,1-.482-2.235c-0.06-.337-0.108-0.594-0.108-0.594l23.45,1.9s0.08-.893.038-0.453a14.928,14.928,0,0,1-.311,2.4C66.511,35.877,66.412,37.418,65.179,37.6Z" transform="translate(-0.326 -0.155)"/>
  <path id="Left_Wrist_Middle_Red_Stripe" data-name="Left Wrist Middle Red Stripe" class="cls-4" d="M67.076,30.481l-24-1.8s-0.028-.254-0.037-0.58a26.038,26.038,0,0,1,.09-3.947c0.067-.706.01-0.213,0.01-0.213l23.9,1.815s0,0.125.01,0.423c0.022,1.123.041,2.93,0.022,3.654C67.066,30.2,67.076,30.481,67.076,30.481Z" transform="translate(-0.326 -0.155)"/>
  <path id="Left_Wrist_Top_Red_Stripe" data-name="Left Wrist Top Red Stripe" class="cls-4" d="M66.906,22.7l-23.368-2.04a25.282,25.282,0,0,1,.82-4.024l0.281,0.033,21.743,2.022a17.776,17.776,0,0,1,.525,4.009" transform="translate(-0.326 -0.155)"/>
  <circle id="Left_Wrist_Button_Two" data-name="Left Wrist Button Two" class="cls-3" cx="53.251" cy="34.697" r="1.47"/>
  <circle id="Left_Wrist_Button_One" data-name="Left Wrist Button One" class="cls-3" cx="47.206" cy="34.167" r="1.47"/>
  <path id="Sleeve_Right" data-name="Sleeve Right" class="cls-5" d="M61.43,50.117c-1.76-2.32-6.384-4.34-6.384-4.34s-0.907.06-.85-0.458a1.9,1.9,0,0,1,1.5-1.283,9.137,9.137,0,0,0,5.484-4.361l0.906-1.648c4.689,0.417,11.357,1.372,17.118.665-1,3.2-5.552,5.716-7.293,9.6-0.61,1.36-.971,2.7-1.161,3.215-1.167,3.159-5.182,5.1-5.182,5.1C63.564,51.858,61.43,50.117,61.43,50.117Z" transform="translate(-0.326 -0.155)"/>
  <path id="Sleeve_Left" data-name="Sleeve Left" class="cls-5" d="M79.478,37.838a71.825,71.825,0,0,1-12.59-.221,69.561,69.561,0,0,0,.2-19.908c3.763,0.207,8.333.194,12.115,0,0.205-.011.092,1.171,0.1,1.377C79.462,25.347,79.53,30.947,79.478,37.838Z" transform="translate(-0.326 -0.155)"/>
  <path id="Bag_Top_Fold_Left" data-name="Bag Top Fold Left" d="M25.48,7.608l-0.4.075c0.91-.955-0.1-2.706-0.3-2.639l0.294-.227C26.226,5.315,26.009,6.845,25.48,7.608Z" transform="translate(-0.326 -0.155)"/>
  <path id="Bag_Top_Fold_Right" data-name="Bag Top Fold Right" d="M32.635,8.467l-1.049-.439c0.04-1.505.1-2.79,0.77-3.377a0.665,0.665,0,0,1,.3-0.214l0.466,0.138C31.935,6.055,31.593,7.45,32.635,8.467Z" transform="translate(-0.326 -0.155)"/>
  <text class="cls-6" transform="translate(11.419 49.626)">$9,600</text>
  <text class="cls-7" transform="translate(47.206 10.082)">WOTC</text>
</svg>
